<svg width="1464" height="1138" xmlns="http://www.w3.org/2000/svg" xmlns:xlink="http://www.w3.org/1999/xlink" xml:space="preserve" overflow="hidden"><defs><filter id="fx0" x="-10%" y="-10%" width="120%" height="120%" filterUnits="userSpaceOnUse" primitiveUnits="userSpaceOnUse"><feComponentTransfer color-interpolation-filters="sRGB"><feFuncR type="discrete" tableValues="0 0"/><feFuncG type="discrete" tableValues="0 0"/><feFuncB type="discrete" tableValues="0 0"/><feFuncA type="linear" slope="0.4" intercept="0"/></feComponentTransfer><feGaussianBlur stdDeviation="4.39037 4.39504"/></filter><clipPath id="clip1"><rect x="0" y="0" width="349" height="471"/></clipPath><linearGradient x1="1759.39" y1="621.234" x2="1759.39" y2="1715.73" gradientUnits="userSpaceOnUse" spreadMethod="reflect" id="fill2"><stop offset="0" stop-color="#2DCEC2"/><stop offset="0.576" stop-color="#299ED4"/><stop offset="1" stop-color="#256BE8"/></linearGradient><linearGradient x1="2313" y1="838.5" x2="2313" y2="1509.5" gradientUnits="userSpaceOnUse" spreadMethod="reflect" id="fill3"><stop offset="0" stop-color="#2DCEC2"/><stop offset="0.576" stop-color="#299ED4"/><stop offset="1" stop-color="#256BE8"/></linearGradient><linearGradient x1="2313" y1="838.5" x2="2313" y2="1509.5" gradientUnits="userSpaceOnUse" spreadMethod="reflect" id="fill4"><stop offset="0" stop-color="#2DCEC2"/><stop offset="0.576" stop-color="#299ED4"/><stop offset="1" stop-color="#256BE8"/></linearGradient><linearGradient x1="2313" y1="838.5" x2="2313" y2="1509.5" gradientUnits="userSpaceOnUse" spreadMethod="reflect" id="fill5"><stop offset="0" stop-color="#2DCEC2"/><stop offset="0.576" stop-color="#299ED4"/><stop offset="1" stop-color="#256BE8"/></linearGradient><linearGradient x1="1207" y1="1509.5" x2="1207" y2="838.5" gradientUnits="userSpaceOnUse" spreadMethod="reflect" id="fill6"><stop offset="0" stop-color="#2DCEC2"/><stop offset="0.576" stop-color="#299ED4"/><stop offset="1" stop-color="#256BE8"/></linearGradient><linearGradient x1="1207" y1="1509.5" x2="1207" y2="838.5" gradientUnits="userSpaceOnUse" spreadMethod="reflect" id="fill7"><stop offset="0" stop-color="#2DCEC2"/><stop offset="0.576" stop-color="#299ED4"/><stop offset="1" stop-color="#256BE8"/></linearGradient><linearGradient x1="1207" y1="1509.5" x2="1207" y2="838.5" gradientUnits="userSpaceOnUse" spreadMethod="reflect" id="fill8"><stop offset="0" stop-color="#2DCEC2"/><stop offset="0.576" stop-color="#299ED4"/><stop offset="1" stop-color="#256BE8"/></linearGradient></defs><g transform="translate(-1028 -605)"><g filter="url(#fx0)" transform="matrix(2 0 0 1.99788 1419 694)"><g clip-path="url(#clip1)"><path d="M238.493 13.9641C264.029 13.9641 282.193 19.2137 292.985 29.7128 303.777 40.2119 309.173 57.178 309.173 80.6108L309.173 183.776C309.173 196.558 311.073 205.688 314.873 211.165 318.673 216.643 325.437 219.382 335.165 219.382L335.165 252.249C325.437 252.249 318.673 254.836 314.873 260.009 311.073 265.183 309.173 274.16 309.173 286.942L309.173 390.107C309.173 413.54 303.777 430.506 292.985 441.005 282.193 451.505 264.029 456.754 238.493 456.754L238.493 427.083C251.261 427.083 260.153 424.648 265.169 419.779 270.185 414.91 272.693 406.389 272.693 394.216L272.693 284.203C272.693 268.682 275.125 257.727 279.989 251.336 284.853 244.945 293.213 239.772 305.069 235.816 293.213 231.859 284.853 226.534 279.989 219.839 275.125 213.144 272.693 202.036 272.693 186.515L272.693 76.5025C272.693 64.3296 270.185 55.8085 265.169 50.9393 260.153 46.0702 251.565 43.6356 239.405 43.6356ZM110.825 13.9641 110.825 43.6356C98.0574 43.6356 89.0894 46.0702 83.9214 50.9393 78.7534 55.8085 76.1694 64.3296 76.1694 76.5025L76.1694 186.515C76.1694 202.036 73.7374 213.144 68.8734 219.839 64.0094 226.534 55.8014 231.859 44.2494 235.816 55.8014 239.772 64.0854 245.021 69.1014 251.564 74.1174 258.107 76.6254 268.987 76.6254 284.203L76.6254 394.216C76.6254 406.389 79.1334 414.91 84.1494 419.779 89.1654 424.648 98.0574 427.083 110.825 427.083L110.825 456.754C85.2894 456.754 67.1254 451.505 56.3334 441.005 45.5414 430.506 40.1454 413.54 40.1454 390.107L40.1454 286.942C40.1454 274.16 38.2454 265.183 34.4454 260.009 30.6454 254.836 23.8814 252.249 14.1534 252.249L14.1534 219.382C23.8814 219.382 30.6454 216.643 34.4454 211.165 38.2454 205.688 40.1454 196.558 40.1454 183.776L40.1454 80.6108C40.1454 57.178 45.4654 40.2119 56.1054 29.7128 66.7454 19.2137 84.9854 13.9641 110.825 13.9641Z" fill="#FF0000" fill-rule="evenodd"/></g></g><path d="M1886.81 712.719C1937.88 712.719 1974.21 723.207 1995.79 744.182 2017.37 765.159 2028.17 799.055 2028.17 845.871L2028.17 1051.98C2028.17 1077.52 2031.97 1095.76 2039.57 1106.7 2047.17 1117.65 2060.69 1123.12 2080.15 1123.12L2080.15 1188.78C2060.69 1188.78 2047.17 1193.95 2039.57 1204.29 2031.97 1214.62 2028.17 1232.56 2028.17 1258.09L2028.17 1464.21C2028.17 1511.02 2017.37 1544.92 1995.79 1565.89 1974.21 1586.87 1937.88 1597.36 1886.81 1597.36L1886.81 1538.08C1912.34 1538.08 1930.13 1533.21 1940.16 1523.49 1950.19 1513.76 1955.21 1496.73 1955.21 1472.41L1955.21 1252.62C1955.21 1221.61 1960.07 1199.73 1969.8 1186.96 1979.53 1174.19 1996.25 1163.85 2019.96 1155.95 1996.25 1148.05 1979.53 1137.41 1969.8 1124.03 1960.07 1110.65 1955.21 1088.46 1955.21 1057.45L1955.21 837.663C1955.21 813.343 1950.19 796.319 1940.16 786.591 1930.13 776.863 1912.95 771.999 1888.63 771.999ZM1631.47 712.719 1631.47 771.999C1605.93 771.999 1588 776.863 1577.66 786.591 1567.33 796.319 1562.16 813.343 1562.16 837.663L1562.16 1057.45C1562.16 1088.46 1557.29 1110.65 1547.57 1124.03 1537.84 1137.41 1521.42 1148.05 1498.32 1155.95 1521.42 1163.85 1537.99 1174.34 1548.02 1187.41 1558.05 1200.49 1563.07 1222.22 1563.07 1252.62L1563.07 1472.41C1563.07 1496.73 1568.09 1513.76 1578.12 1523.49 1588.15 1533.21 1605.93 1538.08 1631.47 1538.08L1631.47 1597.36C1580.4 1597.36 1544.07 1586.87 1522.49 1565.89 1500.9 1544.92 1490.11 1511.02 1490.11 1464.21L1490.11 1258.09C1490.11 1232.56 1486.31 1214.62 1478.71 1204.29 1471.11 1193.95 1457.58 1188.78 1438.13 1188.78L1438.13 1123.12C1457.58 1123.12 1471.11 1117.65 1478.71 1106.7 1486.31 1095.76 1490.11 1077.52 1490.11 1051.98L1490.11 845.871C1490.11 799.055 1500.75 765.159 1522.03 744.182 1543.31 723.207 1579.79 712.719 1631.47 712.719Z" fill="url(#fill2)" fill-rule="evenodd"/><text fill="#000000" fill-opacity="0" font-family="Arial,Arial_MSFontService,sans-serif" font-size="884.64" x="1438.13" y="1486.78">{ }</text><rect x="2136.5" y="987.5" width="58" height="383" stroke="#172C51" stroke-width="4.58333" stroke-miterlimit="8" fill="url(#fill3)"/><rect x="2248.5" y="838.5" width="58" height="671" stroke="#172C51" stroke-width="4.58333" stroke-miterlimit="8" fill="url(#fill4)"/><rect x="2359.5" y="1128.5" width="130" height="50.9999" stroke="#172C51" stroke-width="4.58333" stroke-miterlimit="8" fill="url(#fill5)"/><rect x="1324.5" y="978.5" width="59.0001" height="383" stroke="#172C51" stroke-width="4.58333" stroke-miterlimit="8" fill="url(#fill6)"/><rect x="1213.5" y="838.5" width="58.0001" height="671" stroke="#172C51" stroke-width="4.58333" stroke-miterlimit="8" fill="url(#fill7)"/><rect x="1030.5" y="1169.5" width="130" height="51.0002" stroke="#172C51" stroke-width="4.58333" stroke-miterlimit="8" fill="url(#fill8)"/></g></svg>