<svg width="1459" height="1139" xmlns="http://www.w3.org/2000/svg" xmlns:xlink="http://www.w3.org/1999/xlink" xml:space="preserve" overflow="hidden"><defs><filter id="fx0" x="-10%" y="-10%" width="120%" height="120%" filterUnits="userSpaceOnUse" primitiveUnits="userSpaceOnUse"><feComponentTransfer color-interpolation-filters="sRGB"><feFuncR type="discrete" tableValues="0 0"/><feFuncG type="discrete" tableValues="0 0"/><feFuncB type="discrete" tableValues="0 0"/><feFuncA type="linear" slope="0.4" intercept="0"/></feComponentTransfer><feGaussianBlur stdDeviation="4.39037 4.39504"/></filter><clipPath id="clip1"><rect x="525" y="490" width="1459" height="1139"/></clipPath><clipPath id="clip2"><rect x="0" y="0" width="349" height="471"/></clipPath><linearGradient x1="1254.22" y1="506.731" x2="1254.22" y2="1601.23" gradientUnits="userSpaceOnUse" spreadMethod="reflect" id="fill3"><stop offset="0" stop-color="#2DCEC2"/><stop offset="0.576" stop-color="#299ED4"/><stop offset="1" stop-color="#256BE8"/></linearGradient><linearGradient x1="1807.5" y1="724" x2="1807.5" y2="1395" gradientUnits="userSpaceOnUse" spreadMethod="reflect" id="fill4"><stop offset="0" stop-color="#2DCEC2"/><stop offset="0.576" stop-color="#299ED4"/><stop offset="1" stop-color="#256BE8"/></linearGradient><linearGradient x1="1807.5" y1="724" x2="1807.5" y2="1395" gradientUnits="userSpaceOnUse" spreadMethod="reflect" id="fill5"><stop offset="0" stop-color="#2DCEC2"/><stop offset="0.576" stop-color="#299ED4"/><stop offset="1" stop-color="#256BE8"/></linearGradient><linearGradient x1="1807.5" y1="724" x2="1807.5" y2="1395" gradientUnits="userSpaceOnUse" spreadMethod="reflect" id="fill6"><stop offset="0" stop-color="#2DCEC2"/><stop offset="0.576" stop-color="#299ED4"/><stop offset="1" stop-color="#256BE8"/></linearGradient><linearGradient x1="701.5" y1="1395" x2="701.5" y2="724" gradientUnits="userSpaceOnUse" spreadMethod="reflect" id="fill7"><stop offset="0" stop-color="#2DCEC2"/><stop offset="0.576" stop-color="#299ED4"/><stop offset="1" stop-color="#256BE8"/></linearGradient><linearGradient x1="701.5" y1="1395" x2="701.5" y2="724" gradientUnits="userSpaceOnUse" spreadMethod="reflect" id="fill8"><stop offset="0" stop-color="#2DCEC2"/><stop offset="0.576" stop-color="#299ED4"/><stop offset="1" stop-color="#256BE8"/></linearGradient><linearGradient x1="701.5" y1="1395" x2="701.5" y2="724" gradientUnits="userSpaceOnUse" spreadMethod="reflect" id="fill9"><stop offset="0" stop-color="#2DCEC2"/><stop offset="0.576" stop-color="#299ED4"/><stop offset="1" stop-color="#256BE8"/></linearGradient></defs><g clip-path="url(#clip1)" transform="translate(-525 -490)"><g filter="url(#fx0)" transform="matrix(2 0 0 1.99788 914 579)"><g clip-path="url(#clip2)"><path d="M238.407 14.2127C263.943 14.2127 282.107 19.4623 292.899 29.9614 303.691 40.4606 309.087 57.4266 309.087 80.8595L309.087 184.025C309.087 196.807 310.987 205.936 314.787 211.414 318.587 216.892 325.351 219.631 335.079 219.631L335.079 252.498C325.351 252.498 318.587 255.084 314.787 260.258 310.987 265.431 309.087 274.409 309.087 287.191L309.087 390.356C309.087 413.789 303.691 430.755 292.899 441.254 282.107 451.753 263.943 457.003 238.407 457.003L238.407 427.331C251.175 427.331 260.067 424.897 265.083 420.028 270.099 415.158 272.607 406.637 272.607 394.464L272.607 284.452C272.607 268.931 275.039 257.975 279.903 251.585 284.767 245.194 293.127 240.02 304.983 236.064 293.127 232.108 284.767 226.782 279.903 220.087 275.039 213.392 272.607 202.284 272.607 186.764L272.607 76.7511C272.607 64.5782 270.099 56.0572 265.083 51.188 260.067 46.3188 251.479 43.8842 239.319 43.8842ZM110.739 14.2127 110.739 43.8842C97.9708 43.8842 89.0028 46.3188 83.8348 51.188 78.6668 56.0572 76.0828 64.5782 76.0828 76.7511L76.0828 186.764C76.0828 202.284 73.6508 213.392 68.7868 220.087 63.9228 226.782 55.7148 232.108 44.1628 236.064 55.7148 240.02 63.9988 245.27 69.0148 251.813 74.0308 258.356 76.5388 269.235 76.5388 284.452L76.5388 394.464C76.5388 406.637 79.0468 415.158 84.0628 420.028 89.0788 424.897 97.9708 427.331 110.739 427.331L110.739 457.003C85.2028 457.003 67.0388 451.753 56.2468 441.254 45.4548 430.755 40.0588 413.789 40.0588 390.356L40.0588 287.191C40.0588 274.409 38.1588 265.431 34.3588 260.258 30.5588 255.084 23.7948 252.498 14.0668 252.498L14.0668 219.631C23.7948 219.631 30.5588 216.892 34.3588 211.414 38.1588 205.936 40.0588 196.807 40.0588 184.025L40.0588 80.8595C40.0588 57.4266 45.3788 40.4606 56.0188 29.9614 66.6588 19.4623 84.8988 14.2127 110.739 14.2127Z" fill="#FF0000" fill-rule="evenodd"/></g></g><path d="M1381.63 598.215C1432.71 598.215 1469.03 608.703 1490.62 629.679 1512.2 650.655 1522.99 684.551 1522.99 731.367L1522.99 937.479C1522.99 963.015 1526.79 981.255 1534.39 992.199 1541.99 1003.14 1555.52 1008.62 1574.98 1008.62L1574.98 1074.28C1555.52 1074.28 1541.99 1079.45 1534.39 1089.78 1526.79 1100.12 1522.99 1118.06 1522.99 1143.59L1522.99 1349.7C1522.99 1396.52 1512.2 1430.42 1490.62 1451.39 1469.03 1472.37 1432.71 1482.86 1381.63 1482.86L1381.63 1423.58C1407.17 1423.58 1424.95 1418.71 1434.99 1408.98 1445.02 1399.26 1450.03 1382.23 1450.03 1357.91L1450.03 1138.12C1450.03 1107.11 1454.9 1085.22 1464.63 1072.46 1474.35 1059.69 1491.07 1049.35 1514.79 1041.45 1491.07 1033.54 1474.35 1022.9 1464.63 1009.53 1454.9 996.151 1450.03 973.959 1450.03 942.951L1450.03 723.159C1450.03 698.839 1445.02 681.815 1434.99 672.087 1424.95 662.359 1407.78 657.495 1383.46 657.495ZM1126.3 598.215 1126.3 657.495C1100.76 657.495 1082.83 662.359 1072.49 672.087 1062.15 681.815 1056.99 698.839 1056.99 723.159L1056.99 942.951C1056.99 973.959 1052.12 996.151 1042.39 1009.53 1032.67 1022.9 1016.25 1033.54 993.146 1041.45 1016.25 1049.35 1032.82 1059.84 1042.85 1072.91 1052.88 1085.98 1057.9 1107.72 1057.9 1138.12L1057.9 1357.91C1057.9 1382.23 1062.91 1399.26 1072.95 1408.98 1082.98 1418.71 1100.76 1423.58 1126.3 1423.58L1126.3 1482.86C1075.23 1482.86 1038.9 1472.37 1017.31 1451.39 995.73 1430.42 984.938 1396.52 984.938 1349.7L984.938 1143.59C984.938 1118.06 981.138 1100.12 973.538 1089.78 965.938 1079.45 952.41 1074.28 932.954 1074.28L932.954 1008.62C952.41 1008.62 965.938 1003.14 973.538 992.199 981.138 981.255 984.938 963.015 984.938 937.479L984.938 731.367C984.938 684.551 995.578 650.655 1016.86 629.679 1038.14 608.703 1074.62 598.215 1126.3 598.215Z" fill="url(#fill3)" fill-rule="evenodd"/><text fill="#000000" fill-opacity="0" font-family="Arial,Arial_MSFontService,sans-serif" font-size="884.64" x="932.954" y="1372.28">{ }</text><rect x="1631" y="872" width="57.9998" height="384" fill="url(#fill4)"/><rect x="1742" y="724" width="58.9998" height="671" fill="url(#fill5)"/><rect x="1854" y="1014" width="130" height="49.9998" fill="url(#fill6)"/><rect x="819" y="863" width="58.9998" height="383" fill="url(#fill7)"/><rect x="708" y="724" width="57.9998" height="671" fill="url(#fill8)"/><rect x="525" y="1055" width="129" height="50.0002" fill="url(#fill9)"/></g></svg>